{
    "asset" : {
        "generator" : "Khronos glTF Blender I/O v1.6.16",
        "version" : "2.0"
    },
    "scene" : 0,
    "scenes" : [
        {
            "name" : "Scene",
            "nodes" : [
                0
            ]
        }
    ],
    "nodes" : [
        {
            "mesh" : 0,
            "name" : "background",
            "scale" : [
                20.626041412353516,
                10.71342658996582,
                10.71342658996582
            ],
            "translation" : [
                0,
                0,
                0.7607241868972778
            ]
        }
    ],
    "meshes" : [
        {
            "name" : "Plane",
            "primitives" : [
                {
                    "attributes" : {
                        "POSITION" : 0,
                        "NORMAL" : 1,
                        "TEXCOORD_0" : 2
                    },
                    "indices" : 3
                }
            ]
        }
    ],
    "accessors" : [
        {
            "bufferView" : 0,
            "componentType" : 5126,
            "count" : 2145,
            "max" : [
                1,
                1.4565889835357666,
                0.9166667461395264
            ],
            "min" : [
                -1,
                0,
                -1.0000001192092896
            ],
            "type" : "VEC3"
        },
        {
            "bufferView" : 1,
            "componentType" : 5126,
            "count" : 2145,
            "type" : "VEC3"
        },
        {
            "bufferView" : 2,
            "componentType" : 5126,
            "count" : 2145,
            "type" : "VEC2"
        },
        {
            "bufferView" : 3,
            "componentType" : 5123,
            "count" : 12288,
            "type" : "SCALAR"
        }
    ],
    "bufferViews" : [
        {
            "buffer" : 0,
            "byteLength" : 25740,
            "byteOffset" : 0
        },
        {
            "buffer" : 0,
            "byteLength" : 25740,
            "byteOffset" : 25740
        },
        {
            "buffer" : 0,
            "byteLength" : 17160,
            "byteOffset" : 51480
        },
        {
            "buffer" : 0,
            "byteLength" : 24576,
            "byteOffset" : 68640
        }
    ],
    "buffers" : [
        {
            "byteLength" : 93216,
            "uri" : "data:application/octet-stream;base64,"
        }
    ]
}
